
<svg xmlns="http://www.w3.org/2000/svg" version="1.1" xmlns:xlink="http://www.w3.org/1999/xlink" preserveAspectRatio="none" x="0px" y="0px" width="124px" height="46px" viewBox="0 0 124 46">
<defs>
<g id="Layer0_0_FILL">
<path fill="#F99F1C" stroke="none" d="
M 84.1 45.75
L 85.8 43.1 0 43.1 0 45.75 84.1 45.75
M 98.1 6.25
L 95.5 10.2
Q 95 11 95.2 12 95.3 12.5 95.5 12.85
L 104.4 27.55
Q 105.15 28.95 105 30.55 104.9 31.35 104.65 31.85
L 98.3 41.9 101.45 41.9 108.3 31.25
Q 110.15 28.5 109.55 25.6
L 108.55 23.25 98.1 6.25
M 122.75 35.1
Q 123.45 34.95 124 35
L 121.1 30.5 117 30.5
Q 115.2 30.5 113.9 31.7
L 112.95 32.9 109.05 38.8
Q 108.3 39.8 107.9 39.5 107.6 39.3 107.8 38.85
L 113.25 30.3
Q 115.4 26.7 115.4 24.35 115.4 23 114.55 21
L 113.65 19.3 101.85 0.3 99.6 3.7
Q 99.05 4.55 99.2 5.65 99.3 6.2 99.5 6.55
L 109.85 23.7
Q 111.35 26.25 110.25 29.5 109.7 31.15 108.85 32.25
L 102.6 42 107.75 42
Q 109.4 42 110.65 40.95 111.3 40.4 111.6 39.85
L 114.85 34.75
Q 115.6 33.6 116.7 33.1 117.2 32.85 117.6 32.85
L 120.6 32.85
Q 119.45 33.35 118.55 34.5
L 114.2 41.2
Q 113.3 42.55 112.1 42.95
L 111.1 43.05 96.25 43.05 103.3 32.1
Q 104.35 30.55 103.9 28.85
L 103.3 27.5 93.95 12.3 91.95 15.3
Q 90.9 17 91.3 18.5 91.5 19.25 91.9 19.65
L 98.65 30.5
Q 99.6 31.9 99.45 33.15 99.35 33.75 99.1 34.1
L 91.5 45.75 111.4 45.75
Q 113.7 45.75 115.3 44.25 116.1 43.5 116.45 42.75
L 120.7 36.4
Q 121.35 35.35 122.75 35.1 Z"/>

<path fill="#FFFFFF" stroke="none" d="
M 30.4 30.55
L 28.6 30.55 28.6 39.4 30.4 39.4 30.4 30.55
M 16.95 39.4
L 18.9 39.4 20.05 36.8 24.1 36.8 25.25 39.4 27.25 39.4 23.15 30.55 21.15 30.55 16.95 39.4
M 22.1 32.15
L 23.45 35.3 20.7 35.3 22.1 32.15
M 11.85 18.7
L 10.05 18.7 10.05 27.5 11.85 27.5 11.85 18.7
M 1.15 19.05
Q 0 19.7 0 21.35 0 23 1.15 23.6 1.75 23.9 2.3 23.85
L 5.25 23.85
Q 5.7 23.85 5.9 23.95 6.3 24.2 6.3 24.95 6.3 26.2 5.3 26
L 0.15 26 0.15 27.5 5.85 27.5
Q 6.4 27.5 7 27.2 8.1 26.55 8.1 24.9 8.1 23.25 7 22.7
L 5.9 22.5 3.3 22.5
Q 1.9 22.5 1.9 21.3 1.9 20.65 2.45 20.4
L 2.95 20.25 7.85 20.25 7.85 18.7 2.25 18.7 1.15 19.05
M 22.6 21.75
Q 22.6 19.75 21.1 19.05
L 19.6 18.7 17.4 18.7 16.25 20.05 16.25 18.7 14.4 18.7 14.4 27.5 16.25 27.5 16.25 20.25 19.4 20.25
Q 20.65 20.25 20.75 21.45
L 20.75 27.5 22.6 27.5 22.6 21.75
M 26.15 23.15
Q 26.15 21.35 27.55 20.6 28.2 20.25 28.9 20.25
L 33 20.25 33 18.7 28.45 18.7
Q 27.15 18.7 25.9 19.65 24.25 20.95 24.25 23.2 24.3 25.45 26.05 26.65 27.3 27.5 28.35 27.5
L 32.95 27.5 32.95 21.95 31.2 21.95 31.2 26 28.7 26
Q 26.15 25.4 26.15 23.15
M 71.9 35.8
L 71.9 34.2 67.6 34.2 67.6 32 72.7 32 72.7 30.55 65.75 30.55 65.75 39.4 72.7 39.4 72.7 37.95 67.6 37.95 67.6 35.8 71.9 35.8
M 40.8 34.3
L 40.95 33.15
Q 40.95 31.55 39.7 30.9
L 38.45 30.55 33.2 30.55 33.2 39.4 35 39.4 35 32 37.6 32
Q 39.05 32 39.05 33.4 39.05 34.8 37.7 34.8
L 35.75 34.8 39.45 39.4 41.7 39.4 39.05 36.1
Q 40.4 35.55 40.8 34.3
M 45.05 30.55
L 43.2 30.55 43.2 39.4 49.5 39.4 49.5 37.85 45.05 37.85 45.05 30.55
M 42.4 27.5
L 44.45 27.5 40.3 18.7 38.3 18.7 34.1 27.5 36.1 27.5 37.25 24.95 41.3 24.95 42.4 27.5
M 37.9 23.4
L 39.3 20.3 40.65 23.4 37.9 23.4
M 57 30.55
L 55.15 30.55 55.15 39.4 57 39.4 57 32.15 60.15 32.15
Q 61.4 32.15 61.45 33.35
L 61.45 39.4 63.3 39.4 63.3 33.6
Q 63.3 31.6 61.85 30.9
L 60.35 30.55 58.15 30.55 57 31.95 57 30.55
M 52.75 30.55
L 50.9 30.55 50.9 39.4 52.75 39.4 52.75 30.55
M 48.45 24.55
L 50.5 24.55
Q 51.5 24.55 52.25 23.95 53.3 23.15 53.3 21.45 53.3 19.85 52.05 19.1
L 50.75 18.7 45.6 18.7 45.6 27.5 47.45 27.5 47.45 23.25 48.45 24.55
M 49.9 22.95
L 47.45 22.95 47.45 20.05 49.9 20.05 50.7 20.2
Q 51.5 20.55 51.5 21.55 51.5 22.95 49.9 22.95
M 63.95 23
Q 63.95 20.95 62.55 19.55 61.15 18.15 59.15 18.15 57.15 18.15 55.75 19.55 54.35 21 54.35 23 54.35 24.95 55.75 26.4 57.15 27.8 59.15 27.8 61.15 27.8 62.55 26.4 63.95 24.95 63.95 23
M 61.35 20.85
Q 62.25 21.75 62.25 23 62.25 24.25 61.35 25.1 60.45 26 59.15 26 57.9 26 57 25.1 56.1 24.25 56.1 23 56.1 21.75 57 20.85 57.9 19.95 59.15 19.95 60.45 19.95 61.35 20.85
M 67.25 20.15
L 69.85 20.15
Q 71.3 20.15 71.3 21.55 71.3 22.9 69.95 22.95
L 68 22.95 71.7 27.5 73.95 27.5 71.3 24.2
Q 72.65 23.65 73.05 22.45
L 73.2 21.3
Q 73.2 19.7 71.95 19.05
L 70.7 18.7 65.45 18.7 65.45 27.5 67.25 27.5 67.25 20.15
M 82.4 20.15
L 82.4 18.7 75.5 18.7 75.5 27.5 82.4 27.5 82.4 26.05 77.35 26.05 77.35 23.9 81.65 23.9 81.65 22.3 77.35 22.3 77.35 20.15 82.4 20.15
M 82.4 32.15
L 82.4 30.55 76.8 30.55
Q 76.25 30.55 75.7 30.9 74.55 31.55 74.55 33.25 74.55 34.9 75.7 35.5 76.25 35.8 76.8 35.75
L 79.75 35.75
Q 80.25 35.75 80.4 35.85 80.8 36.05 80.8 36.85 80.8 38.05 79.8 37.9
L 74.7 37.9 74.7 39.4 80.35 39.4 81.5 39.05
Q 82.65 38.4 82.65 36.75 82.65 35.1 81.55 34.55
L 80.45 34.35 77.8 34.35
Q 76.4 34.35 76.4 33.15 76.4 32.55 76.95 32.3 77.25 32.15 77.5 32.15
L 82.4 32.15 Z"/>
</g>
</defs>

<g transform="matrix( 1, 0, 0, 1, 0,0) ">
<use xlink:href="#Layer0_0_FILL"/>
</g>
</svg>
