<?xml version="1.0" encoding="utf-8"?>
<!-- Generator: Adobe Illustrator 17.1.0, SVG Export Plug-In . SVG Version: 6.00 Build 0)  -->
<!DOCTYPE svg PUBLIC "-//W3C//DTD SVG 1.1//EN" "http://www.w3.org/Graphics/SVG/1.1/DTD/svg11.dtd">
<svg version="1.1" id="b_x2F_w_-_logo" xmlns="http://www.w3.org/2000/svg" xmlns:xlink="http://www.w3.org/1999/xlink" x="0px"
	 y="0px" viewBox="0 0 739.9 136" enable-background="new 0 0 739.9 136" xml:space="preserve">
<g id="outlines_3_">
	<g>
		<path fill="#FFFFFF" d="M260,106l-20.2-42.3c-4.8-10-9.8-21.4-11.5-26.7l-0.4,0.4c0.7,7.6,0.8,17.1,0.9,25l0.5,43.6h-14.7V15.9
			h16.9l21.9,44c4.2,8.3,8.1,19,9.2,23.2l0.4-0.4c-0.4-4.6-1.3-17.5-1.3-25.7l-0.3-41.2h14.2V106H260z"/>
		<path fill="#FFFFFF" d="M302.5,76.9v1c0,9.1,3.4,18.8,16.3,18.8c6.1,0,11.5-2.2,16.4-6.5l5.6,8.7c-6.9,5.9-14.8,8.7-23.7,8.7
			c-18.6,0-30.3-13.4-30.3-34.5c0-11.6,2.5-19.3,8.2-25.8c5.3-6.1,11.9-8.9,20.2-8.9c6.5,0,12.5,1.7,18.1,6.8
			c5.7,5.2,8.6,13.3,8.6,28.7v3H302.5z M315.2,49.3c-8.1,0-12.5,6.4-12.5,17.1H327C327,55.7,322.3,49.3,315.2,49.3z"/>
		<path fill="#FFFFFF" d="M418,106.2h-13.4l-8.1-30.3c-2.1-7.8-4.3-18-4.3-18H392c0,0-1,6.5-4.3,18.6l-7.9,29.7h-13.4l-18-65.2
			l14.2-2l7.2,31.9c1.8,8.2,3.4,17.3,3.4,17.3h0.4c0,0,1.3-8.6,3.8-17.7l8.5-30.5h14.1l7.4,29.7c2.7,10.7,4.2,18.8,4.2,18.8h0.4
			c0,0,1.6-10,3.3-17.7l6.8-30.7h14.8L418,106.2z"/>
		<path fill="#FFFFFF" d="M520.1,106L512.3,92C506.1,81,501.9,74.7,497,69.8c-1.7-1.7-3-2.6-5.9-2.7V106h-14.7V15.9h27.5
			c20.2,0,29.3,11.7,29.3,25.8c0,12.9-8.3,24.7-22.4,24.7c3.3,1.7,9.2,10.4,13.9,18L538,106H520.1z M499.3,28h-8.2v28.5h7.7
			c7.8,0,12-1,14.7-3.8c2.5-2.5,4-6.3,4-10.9C517.5,32.7,512.6,28,499.3,28z"/>
		<path fill="#FFFFFF" d="M557.7,76.9v1c0,9.1,3.4,18.8,16.3,18.8c6.1,0,11.5-2.2,16.4-6.5l5.6,8.7c-6.9,5.9-14.8,8.7-23.7,8.7
			c-18.6,0-30.3-13.4-30.3-34.5c0-11.6,2.5-19.3,8.2-25.8c5.3-6.1,11.9-8.9,20.2-8.9c6.5,0,12.5,1.7,18.1,6.8
			c5.7,5.2,8.6,13.3,8.6,28.7v3H557.7z M570.3,49.3c-8.1,0-12.5,6.4-12.5,17.1h24.4C582.1,55.7,577.4,49.3,570.3,49.3z"/>
		<path fill="#FFFFFF" d="M623.8,107.4c-14.5,0-14.5-13-14.5-18.6V32.7c0-9-0.4-13.8-1.3-19.3l14.7-3.3c1,4,1.2,9.5,1.2,18.1v55.9
			c0,8.9,0.4,10.3,1.4,11.9c0.8,1.2,3,1.8,4.7,1l2.3,8.9C629.8,106.9,627.1,107.4,623.8,107.4z"/>
		<path fill="#FFFFFF" d="M648.7,30.3c-5.2,0-9.2-4.3-9.2-9.5c0-5.3,4.2-9.6,9.5-9.6c5.1,0,9.4,4.2,9.4,9.6
			C658.3,26,654,30.3,648.7,30.3z M641.5,106V41.1l14.5-2.6V106H641.5z"/>
		<path fill="#FFFFFF" d="M697,107.7c-18,0-28-12.6-28-33.9c0-24,14.3-35.4,29-35.4c7.2,0,12.4,1.7,18.2,7.2l-7.2,9.5
			c-3.9-3.5-7.3-5.1-11.1-5.1c-4.6,0-8.3,2.3-10.4,6.6c-2,4-2.7,10.2-2.7,18.4c0,9,1.4,14.7,4.4,18c2.1,2.3,5.2,3.8,8.7,3.8
			c4.6,0,9-2.2,13.3-6.5l6.8,8.7C712.1,104.9,705.8,107.7,697,107.7z"/>
		<path fill="#FFFFFF" d="M730.3,107.4c-5.3,0-9.6-4.3-9.6-9.7c0-5.4,4.3-9.7,9.6-9.7c5.3,0,9.6,4.3,9.6,9.7
			C739.9,103.2,735.6,107.4,730.3,107.4z M730.3,90c-4.1,0-7.4,3.4-7.4,7.7c0,4.3,3.3,7.8,7.4,7.8c4.1,0,7.4-3.5,7.4-7.8
			C737.7,93.4,734.4,90,730.3,90z M732.2,103.1c-0.4-0.7-0.6-1-1-1.8c-1.1-2-1.4-2.5-1.8-2.7c-0.1-0.1-0.2-0.1-0.3-0.1v4.5h-2.1
			V92.3h4c1.9,0,3.2,1.3,3.2,3.2c0,1.6-1.1,3-2.4,3c0.2,0.2,0.3,0.3,0.4,0.5c0.6,0.8,2.6,4.2,2.6,4.2H732.2z M731.1,94.2
			c-0.2-0.1-0.7-0.2-1.2-0.2h-0.8v2.9h0.7c0.9,0,1.4-0.1,1.6-0.4c0.3-0.3,0.4-0.7,0.4-1.1C731.8,94.8,731.6,94.4,731.1,94.2z"/>
	</g>
	<g>
		<g>
			<path fill="#FFFFFF" d="M75.5,136c-37.3,0-67.9-20.6-74.3-50.1c-7.9-36.2,22.6-73.6,68-83.5C76.6,0.8,84.1,0,91.5,0
				c37.3,0,67.9,20.6,74.3,50.1c3.8,17.6-1.2,36-14.1,51.8c-12.8,15.7-32,26.9-53.9,31.7C90.4,135.2,82.9,136,75.5,136z M91.5,4
				c-7.1,0-14.3,0.8-21.4,2.3C26.9,15.7-2.3,51,5.1,85.1c6,27.7,35,47,70.4,47c7.1,0,14.3-0.8,21.4-2.3c21-4.6,39.3-15.3,51.6-30.3
				c12.2-14.8,16.9-32,13.3-48.4C155.8,23.3,126.9,4,91.5,4z"/>
		</g>
		<g>
			<path fill="#FFFFFF" d="M90.7,117.7c-26.8,0-48.5-21.8-48.5-48.5c0-26.8,21.8-48.5,48.5-48.5c26.8,0,48.5,21.8,48.5,48.5
				C139.2,95.9,117.4,117.7,90.7,117.7z M90.7,24.7c-24.5,0-44.5,20-44.5,44.5c0,24.6,20,44.5,44.5,44.5c24.6,0,44.5-20,44.5-44.5
				C135.2,44.6,115.2,24.7,90.7,24.7z"/>
		</g>
		<g>
			<path fill="#FFFFFF" d="M83.5,98.3c-16.7,0-30.3-13.6-30.3-30.3c0-16.7,13.6-30.3,30.3-30.3c16.7,0,30.3,13.6,30.3,30.3
				C113.8,84.7,100.2,98.3,83.5,98.3z M83.5,41.7C69,41.7,57.2,53.5,57.2,68c0,14.5,11.8,26.3,26.3,26.3c14.5,0,26.3-11.8,26.3-26.3
				C109.8,53.5,98,41.7,83.5,41.7z"/>
		</g>
	</g>
</g>
</svg>
