<?xml version="1.0" encoding="utf-8"?>
<!-- Generator: Adobe Illustrator 17.1.0, SVG Export Plug-In . SVG Version: 6.00 Build 0)  -->
<!DOCTYPE svg PUBLIC "-//W3C//DTD SVG 1.1//EN" "http://www.w3.org/Graphics/SVG/1.1/DTD/svg11.dtd">
<svg version="1.1" id="Layer_1" xmlns="http://www.w3.org/2000/svg" xmlns:xlink="http://www.w3.org/1999/xlink" x="0px" y="0px"
	 viewBox="315.8 651.4 300 142.3" enable-background="new 315.8 651.4 300 142.3" xml:space="preserve">
<g>
	<path fill="#FFFFFF" d="M404.7,751.1c0.3-0.1,0.5-0.2,0.7-0.3c0.1,0.8,0,1.5-0.5,2.2c0.1,0.5,0.1,0.8,0.2,1.1
		c0.1,0.3-0.5,0.5-0.2,0.8v0.1c-0.8,0.6-0.6,1.4-0.6,2.3c0,0.9-0.2,1.8-0.1,2.9c0,0.2,0,0.6,0,0.8c-0.1,0.6-0.2,1,0,1.6
		c0.1,0.3,0.1,0.7,0,0.9c-0.3,1.1-0.3,2.5-0.5,3.8c-0.1,1-0.3,2.3-0.6,3.3c-0.3,1-0.3,2.3-0.5,3.3c-0.1,0.9-0.1,1.8-0.2,2.9
		c-0.1,1-0.5,2.3-0.7,3.3c-0.3,1.3-0.8,2.5-1,3.8c-0.1,0.3-0.2,0.8-0.5,1.1c-0.7,0.8-1.1,1.6-2,2.4c-0.3,0.2-0.7,0.6-1,0.6
		c-0.9,0.1-1.4,0.7-1.7,1.5c-0.2,0.6-0.5,1.3-0.7,1.8c-0.1,0.3-0.2,0.6-0.5,0.8c-0.3,0.3-0.5,0.7-0.5,1.1c0,0.1-0.1,0.3-0.3,0.3
		c-0.1,0.1-0.3-0.2-0.3-0.5c0.1-0.5,0.1-0.9-0.3-1.3c-0.2-0.2-0.2-0.5-0.2-0.7c-0.1-0.7,0.1-1.4-0.2-2c-0.1-0.1,0-0.2,0-0.5
		c0.1-0.9,0-2,0-3c0.1-1.8,0-3.9,0-5.7c0-1.5,0.2-3.1-0.1-4.6c0-0.1,0-0.3,0-0.6c0.2-1.1,0.3-2.4,0.3-3.5c0-0.7,0.1-1.5,0.1-2.3
		c0-1.5,0.1-3.1,0.1-4.7c0.1-2.7,0.1-5.3,0.2-8c0-1.4,0-3,0.1-4.3c0.1-2.4,0.1-4.8,0.2-7.2c0.1-3.2,0.3-6.5,0.6-9.6
		c0.2-2.6,0.5-5.3,0.8-7.9c0-0.5,0.2-0.9-0.1-1.4c-0.6,0-1,0.3-1.5,0.6c-0.7,0.5-1.4,0.8-2.3,1.1c-0.1,0.1-0.3,0.2-0.5,0.3
		c-0.3,0.3-0.7,0.8-1.3,0.6c-0.7,0.7-1.8,0.7-2.7,1.1c-0.7,0.5-1.4,0.7-2.3,0.9c-1.8,0.6-3.8,1.1-5.6,1.7c-0.1,0-0.2,0.1-0.3,0.1
		c-0.9,0.6-1.8,0.7-3,0.8c-0.1,0.2-0.2,0.3-0.3,0.6c-0.1,0-0.1,0-0.2,0c-0.2,0-0.5-0.1-0.7-0.1c-0.7,0.3-1.6,0.2-2.4,0.7
		c-0.7,0.3-1.6,0.5-2.5,0.6c-0.7,0.1-1.1,0.5-1.5,1c-0.2,0.5-0.5,0.9-0.9,1.1c-0.1,0-0.2,0.1-0.2,0.2c0,0.8-0.7,1-1.3,1.6
		c0.1,0.2,0.2,0.5,0.2,0.7c-0.2,0.5-0.5,1.1-0.9,1.6c-0.2-0.1-0.5-0.2-0.7-0.5c0.1,0.5,0.1,0.8,0.2,1.1c-0.2,0.1-0.6,0.2-0.8,0.3
		c-0.7,0.2-0.8,0.3-0.3,1.3c-0.1,0.3-0.3,0.7-0.6,1c-0.1,0.3-0.5,0.6-0.7,0.8c-0.5,0.3-1,0.7-0.8,1.5c0.1,0.2-0.1,0.6-0.3,0.9
		c-0.6,0.8-1.3,1.5-1.8,2.4c-0.2,0.2-0.3,0.6-0.5,0.8c-0.3,0.8-0.7,1.5-1.3,2.2c-0.5,0.6-0.9,1.1-1.3,1.7c-0.7,1.1-1.5,2.3-2.4,3.3
		c-0.3,0.5-0.8,1-1.4,1.3c-0.1,0-0.1,0.2-0.2,0.2c-1.1-0.1-1.1,1.1-1.8,1.5c0,0.5-0.5,0.2-0.7,0.5c-0.1,0.2,0,0.6-0.5,0.7
		c0-0.3-0.1-0.7-0.1-1c-0.5-0.3-0.8-0.2-1.4,0c-0.3,1-1,2-1.7,3c-0.3,0.3-0.6,0.8-0.7,1.3c-0.2,0.6-0.5,1-1,1.5
		c-0.6,0.3-0.8,0.9-1.1,1.5c-0.6,1.4-1.5,2.4-3.1,3c0-0.2,0-0.6,0.1-0.7c0.5-0.5,0.6-1.1,0.8-1.7c0.6-1.5,1.5-3,2.4-4.5
		c0.8-1.5,1.5-3.1,2.5-4.6c1.6-2.9,2.7-5.9,4.2-8.7c0.9-1.7,2-3.4,3-5c0.3-0.5,0.6-1,0.9-1.6c0.8-1.6,1.7-3.3,2.6-4.9
		c0.2-0.6,0.6-1,0.8-1.6c0-0.1,0-0.2-0.1-0.3c-0.1-0.1-0.3-0.1-0.3-0.1c-0.5,0.5-1.1,0.3-1.7,0.5c-0.2,0-0.3,0.1-0.6,0.1
		c-0.9-0.5-1.7,0-2.5,0.5c-0.8,0.3-1.5,0.6-2.4,0.8c-0.9,0.2-1.7,0.5-2.7,0.8c-0.7,0.2-1.3,0.5-2,0.6c-2.5,0.6-4.9,1.3-7.4,1.6
		c-1.7,0.2-3.4,0.3-5.1,0.3c-0.9,0-1.7,0.2-2.6,0.3c-2.9,0.6-5.6,1.3-8.6,1.5c-0.9,0-1.8-0.2-2.7-0.6c-0.6-0.2-1.3-0.3-1.6-0.9
		c0.5-0.8,1-1.4,1.7-1.8c1.3-0.9,2.9-1.4,4.3-1.8c1-0.3,2.2-0.6,3.1-1.3c0.3-0.2,0.7-0.3,1-0.5c0.8-0.2,1.7-0.3,2.6-0.8
		c0.1-0.1,0.3-0.1,0.6-0.1c0.3,0.1,0.6,0,0.8-0.2c0.6-0.5,1.1-0.8,2-0.9c0.6-0.1,1.1-0.3,1.6-0.6c0.3-0.1,0.7-0.3,1.1-0.2
		c0.1,0,0.2,0,0.2,0c0.8-0.8,2-0.7,3-1c1-0.3,2-0.7,3.1-1c1-0.3,2.2-0.5,3.2-0.8c1.6-0.5,3.4-0.7,5-1.3c0.5-0.1,1-0.2,1.5-0.3
		c0.8-0.2,1.6-0.6,2.6-0.8c0.8-0.2,1.5-0.3,2.4-0.6c1.3-0.3,2.6-0.8,3.9-1.3c0.5-0.1,0.9-0.2,1.5-0.3c0.1,0,0.3,0,0.3-0.1
		c0.3-0.5,0.8-0.2,1.3-0.3c0.6-0.9,1.3-1.7,1.6-2.7c0.5-1.3,1.3-2.5,1.8-3.7c0.5-0.9,1-1.8,1.6-2.9c0.1-0.2,0.3-0.3,0.5-0.5
		c0.1,0,0.2,0,0.3,0c0.1-0.1,0.1-0.3,0-0.5c-0.2-0.3-0.2-0.7,0-1c0.9-1.5,1.7-3,2.7-4.5c0.2-0.5,0.5-0.9,0.7-1.3
		c1.5-2.6,3.1-5,4.6-7.7c2.2-3.4,4.1-6.8,6.4-10.2c1-1.5,1.8-3.1,2.9-4.6c1.6-2.7,3.2-5.5,4.8-8.2c1-1.8,2.4-3.7,3.4-5.5
		c1.5-2.7,3.1-5.5,4.6-8.2c0.2-0.3,0.5-0.8,0.7-1.1c0.3-0.3,0.5-0.8,0.7-1.1c0.6-1.3,1.3-2.5,1.8-3.8c0.8-1.6,1.6-3.3,2.5-4.8
		c0.2-0.5,0.5-0.7,1-0.8c0.2,0,0.3-0.2,0.6-0.3c0.1-0.1,0.3-0.2,0.5-0.2c0.7,0,1.1-0.5,1.6-0.7c0.3-0.2,0.7-0.5,1-0.7
		c0.6-0.3,1.1-0.2,1.8-0.5c0.3-0.1,0.7,0.5,1.1,0.2c0.3-0.1,0.8-0.1,1.1-0.1c0.5,0.2,0.2,0.6,0.3,0.9c0.1,0.2,0.3,0.5,0.5,0.6
		c-0.2,1.5-0.1,3.1-0.1,4.6c0,0.9-0.1,1.8-0.2,2.9c-0.6,4.9-1.3,10-2,15c-0.7,5.4-1.4,10.7-2.2,16.1c-0.6,4.7-1.1,9.3-1.7,14
		c-0.2,1.4-0.3,3,0,4.3c0,0.1,0.1,0.3,0,0.6c-0.2,0.6-0.2,1-0.2,1.6c0,0.2,0,0.3-0.1,0.6c-0.6,1.3-0.7,2.6-0.8,4
		c0,0.9-0.3,1.8-0.5,2.7c-0.2,1-0.6,2.2-0.6,3.3c0,0.6-0.1,1.3-0.2,1.8c-0.1,1,0,2,0.1,3.1c0.1,0.5,0,0.9,0,1.5
		c-0.1,0.9-0.3,1.8-0.2,3c0,0.8,0.1,1.7-0.1,2.5c-0.2,0.7-0.3,1.5-0.6,2.4c-0.1,0.2-0.1,0.6,0,0.8c0.2,0.9,0.1,1.8,0,2.9
		c-0.1,0.9-0.3,2-0.2,3c0.1,0.9,0.2,1.8-0.1,2.7c0.2,1.1-0.1,2.5,0,3.7C404.7,750.3,404.7,750.7,404.7,751.1z M399.3,682.8
		c-0.2,0.2-0.6,0.5-0.5,0.6c0.1,0.7-0.3,1-0.7,1.4c-0.3,0.3-0.7,0.8-0.8,1.3c-0.2,0.8-0.6,1.4-1.5,1.6c-0.3,0.1-0.6,0.3-0.7,0.8
		c0,0.2-0.1,0.5-0.2,0.7c-0.2,0.8-0.6,1.5-1.4,1.8c0,0,0,0.1-0.1,0.1c0.1,0.2,0.1,0.5,0.2,0.7c-0.5,0.5-0.9,0.9-1.4,1.1
		c-0.6,0.3-0.3,1-0.8,1.4v0.1c0.1,0.1,0.3,0.1,0.5,0.2c-0.2,1-0.9,1.7-1.8,2.3c-0.7,0.3-1.1,0.6-1.4,1.4c0.2,0,0.3,0.1,0.6,0.1l0,0
		c0.1,0.5-0.1,0.7-0.5,0.9c-0.8,0.7-1.6,1.5-2,2.6c-0.2,0.8-0.7,1.3-1.5,1.4c-0.1,0-0.1,0.1-0.2,0.2c0.1,0.2,0.2,0.6,0,0.8
		c-0.7,0.6-0.9,1.4-1.4,2.2c-0.6,0.9-1.4,1.7-1.8,2.7c-0.2,0.5-0.6,0.8-0.9,1.3c-0.5,0.7-0.9,1.5-1.6,2c-0.2,0.1-0.3,0.5-0.3,0.7
		c0,0.7-0.2,1.1-0.8,1.5c-0.2,0.2-0.6,0.6-0.6,0.9c0,0.6-0.3,1-0.7,1.5c-0.2,0.2-0.2,0.5-0.1,0.8c0,0.1,0,0.1,0,0.2
		c-0.3,0-0.6,0-0.9,0.1c-0.3,0.8-0.6,1.6-0.9,2.4c-0.2,0.3-0.7,0.7-0.8,1c-0.2,0.5-0.2,0.9-0.5,1.4c-0.2,0.5-0.5,0.9-0.8,1.6
		c0.3,0,0.6,0,0.9-0.1c0.3-0.1,0.6-0.3,0.9-0.3c1.1-0.2,2.4-0.5,3.7-0.7c0.6-0.1,1.1-0.1,1.6-0.3c1.3-0.6,2.9-0.7,4.1-1.1
		c0.7-0.2,1.4-0.3,2.3-0.5c0.7,0,1.4-0.5,2-0.7c0.5,0.1,0.9,0.2,1.3,0.3c0.3-0.1,0.7-0.5,1-0.5c0.3,0,0.7-0.1,1-0.2
		c1.3-0.3,2.6-0.8,4-0.8c0.5-0.3,0.6-0.7,0.7-1.1c0.1-1.8,0.6-3.7,0.6-5.5c0-0.2,0.1-0.5,0.1-0.7c0.2-1.6,0.5-3.3,0.7-5
		c0.1-0.8,0.3-1.6,0.5-2.5c0.3-2.3,0.7-4.3,1-6.6c0.2-1.5,0.6-3.2,0.8-4.7c0.2-1.3,0.5-2.7,0.7-4c0.5-2.7,0.9-5.3,1.5-8
		c0.1-0.3,0-0.7,0-1.1c-0.2,0.1-0.5,0.2-0.6,0.3C400.6,681.6,400,682.3,399.3,682.8L399.3,682.8z M404.6,753.1
		c0-0.1-0.1-0.1-0.1-0.2c0,0.1-0.1,0.1-0.1,0.2s0.1,0.1,0.1,0.2C404.6,753.2,404.6,753.1,404.6,753.1z"/>
	<path fill="#FFFFFF" d="M548.4,690.7c-0.1,0.1-0.1,0.2-0.2,0.2c-0.3,0.1-0.7,0.2-0.5,0.7c0.1,0.2,0.3,0.2,0.8-0.1
		c0.1-0.1,0.2-0.1,0.3-0.2c0,0,0.1,0,0.2,0c0.1,0.2,0.2,0.5,0.3,0.7c0.7-0.1,0.7-0.1,0.7-0.8c0-0.2,0.2-0.5,0.5-0.3
		c0.2,0.1,0.3,0.3,0.6,0.6c0.2,0.2,0.6,0.2,0.7-0.1s0.3-0.5,0.7-0.6c0.6-0.1,0.6-0.1,1-0.8c0.2,0.1,0.5,0.2,0.8,0.3
		c0.3-0.2,0.7-0.5,1-0.7c0.2,0.1,0.6,0.1,0.9,0.2c0.8-0.7,1.8-0.7,3-0.9c0.1,0,0.2,0.1,0.3,0.2c0.1,0.2,0,0.3-0.2,0.3
		c-0.2,0-0.3,0.1-0.3,0.3c0,0.1,0.2,0.3,0.3,0.3c0.2,0,0.7,0.1,0.8-0.1c0.6-0.6,1.6-0.7,1.8-1.6c0.3-0.2,0.7-0.6,1.1-0.6
		c0.3,0,0.7,0,1,0.2c0.2,0.2,0.6,0.3,0.8,0.5c0.2,0.2,0.5,0.1,0.7,0.2c0,0.2,0,0.5,0,0.8c0.5,0,0.9-0.1,1.4-0.1c0.2-0.3,0-1,0.8-1
		c0.1,0.2-0.1,0.2-0.2,0.5c0,0.1-0.1,0.3,0,0.5c0.1,0.2,0.3,0.2,0.5,0.2c0.6-0.2,1.4-0.1,1.8-0.6c0.1-0.1,0.5-0.1,0.7-0.1
		c0.1,0,0.2,0.1,0.2,0.2s0,0.2-0.1,0.3c-0.3,0.2-0.8,0.2-1,0.7c-1,0.3-2.2,1-3.3,1c-0.5,0-0.8,0.2-1.3,0.5c-0.6,0.2-1.4,0.2-1.8,0.9
		c-0.1,0.1-0.3,0-0.5,0.1c-0.2,0-0.3,0-0.6,0.1c-0.5,0.2-0.9,0.3-1.5,0.3c-0.6,0.1-1.3,0.3-1.7,0.7c-0.4,0.4-1,0.5-1.6,0.7
		c-0.3,0.1-0.6,0.2-0.8,0.5c-0.3,0.2-0.7,0.3-1.1,0.2c-0.4-0.1-0.9,0.1-1.5,0.3c-0.6,0.2-1,0.5-1.6,0.7c-1.3,0.3-2.5,1-3.9,1
		c-0.1,0-0.2,0.1-0.3,0.1c-0.7,0-1.1,0.7-2,0.7c-0.6,0-1.3,0.1-1.8,0.3c-0.6,0.2-1,0.6-1.6,0.8c-0.3,0.1-0.7,0.2-1,0.3
		c-0.9,0.2-1.8,0.3-2.6,1.1c-0.1,0.2-0.5,0.2-0.8,0.3c-0.1,1.6-0.2,3.3-0.5,5c-0.1,1.7-0.3,3.5-0.6,5.3c-0.2,1.5-0.5,3.1-0.7,4.6
		c-0.3,2-0.6,4-1.1,5.9c-0.2,1-0.3,2.3-0.5,3.3c-0.1,0.9-0.2,2-0.3,3c-0.3,2.6-0.8,5.1-1.1,7.8c-0.1,0.7-0.3,1.4-0.5,2.3
		c-0.3,1.6-0.6,3.3-0.7,4.9c0,0.5-0.2,1-0.3,1.5c-0.5,2.4-0.8,4.7-1.7,7c-0.1,1.3-0.8,2.5-0.9,3.8c0,0.1-0.1,0.2-0.1,0.3
		c0.3,1.4-0.3,2.7-0.2,4c0,0.6-0.1,1.1-0.2,1.7c-0.1,0.8-0.3,1.6-0.6,2.5c-0.2,0.6-0.2,1.3-0.8,1.8c-0.3,0.3-0.5,1-0.7,1.5
		c-0.1,0.2-0.2,0.6-0.6,1.1c0-1.5,0.8-2.5,0.6-3.8c-0.2,0.2-0.8,1-0.8,1.4c0,1-0.2,2.2-0.8,3.1c-0.1,0.2-0.1,0.6-0.2,0.8
		c-0.1,0.6-0.2,1-0.3,1.6c-0.3,0-0.7,0-1,0c0,0.2,0,0.5,0,0.7c-0.2,0.1-0.5,0.1-0.8,0.2c-0.1-0.9,0-1.8,0.1-2.9c0-0.1,0-0.2,0.1-0.2
		c0.8-0.8,0.6-1.8,0.6-3c0-0.8-0.1-1.6,0.1-2.5c0-0.2-0.1-0.5-0.2-0.7c-0.2,0.1-0.3,0.2-0.6,0.3l0,0c-0.6-0.6-0.8-1.3-0.5-2.2
		c0.1-0.3,0.1-0.8,0.2-1.1c0.1-2.3,0.7-4.5,1.3-6.7c0.3-1.1,0.6-2.4,0.6-3.7c0.1-1,0.3-2,0.6-3.1c0-0.2,0.1-0.5,0.1-0.7
		c-0.3-1.3,0.1-2.5,0.2-3.8c0.1-1.3,0.3-2.5,0.5-3.8c0.1-0.9,0.2-1.7,0.3-2.7c0.2-1.3,0.5-2.6,0.7-3.9c0.3-1.7,0.7-3.4,0.9-5.1
		c0.3-2.2,0.7-4.1,1-6.3c0.2-1.1,0.3-2.4,0.5-3.5c0.2-1.3,0.5-2.7,0.7-4c0.5-2.3,0.8-4.5,1.3-6.8c0.2-1.1,0.6-2.4,0.8-3.5
		c0.1-0.3,0.1-0.6,0.1-1c-1-0.2-2.2-0.1-3,0.3c-1.6,0.8-3.4,1.1-5.1,1.5c-0.2,0-0.3,0-0.6,0.1c-0.7,0.5-1.6,0.5-2.5,0.7
		c-2.2,0.6-4.3,1-6.5,1.7c-0.7,0.2-1.4,0.6-2.3,0.8c-0.3,0.1-0.6,0.2-0.9,0.3c-0.6,0.1-1.3,0.2-1.8,0.3c-0.8,0.2-1.7,0.3-2.6,0.1
		c-0.5-0.1-0.9-0.1-1.3-0.5c-0.2-0.2-0.5-0.2-0.7-0.3c-0.8-0.3-1.5-0.7-2.2-1.3c-0.6-0.6-1.3-0.9-2-1.3c-0.5-0.2-0.9-0.5-1.4-0.8
		c0.2-0.7,0.6-1,0.9-1.6c0.8-0.1,1.6-0.2,2.4-0.8c0.1-0.1,0.5-0.1,0.8-0.2c0.9-0.1,2-0.1,3-0.2c1-0.1,2.3-0.5,3.3-0.7
		c0.9-0.2,1.7-0.5,2.7-0.7c2-0.5,4-0.9,6-1.4c0.9-0.2,1.8-0.5,2.9-0.6c0.9-0.2,1.8-0.3,2.9-0.7c1.3-0.5,2.6-0.6,4-0.8
		c0.3,0,0.6-0.1,0.9-0.5c0.3-0.4,0.8-0.5,1.3-0.8c0.3,0.1,0.6,0.3,0.9,0.3c0.2,0,0.5-0.2,0.7-0.3c0.3-0.2,0.6-0.2,1-0.1
		c0.6,0.1,1-0.2,1.3-0.8c0.1-0.3,0.2-0.7,0.3-1c0.3-1.7,0.8-3.5,1.3-5.3c0.3-1.4,0.6-3,0.9-4.3c0-0.2,0.1-0.6,0.1-0.8
		c0.2-1.5,0.7-3.1,1.8-4.2c0.3,0,0.7,0,1,0c0.1-0.1,0.1-0.2,0.2-0.3c0.1-0.1,0.2-0.3,0.3-0.2c0.1,0,0.3,0.2,0.3,0.3
		c0,0.3,0.1,0.7,0,1c-0.1,0.7-0.2,1.5-0.2,2.3c0,1.4,0,2.9-0.3,4.2c-0.2,1.4-0.3,2.9-0.8,4.1c-0.2,0.8-0.1,1.7-0.3,2.6
		c0,0.2,0.1,0.5,0.3,0.6c0.1,0,0.5,0,0.5-0.1c0.3-0.5,0.7-0.7,1.3-0.7c0.6-0.1,1.3-0.3,1.8-0.5c0.7-0.1,1.4,0,2-0.6h0.1
		c0.6,0,1.1,0.1,1.6-0.1C547.2,690.9,547.8,690.8,548.4,690.7L548.4,690.7z M561.3,691.2c0.5-0.1,0.8-0.2,1-0.2c0.1,0,0.2,0,0.2-0.1
		c0.2-0.1,0.2-0.3,0.1-0.6c-0.1-0.1-0.3-0.2-0.5-0.2C561.9,690.1,561.4,690.5,561.3,691.2z M564.4,689.4c-0.1,0-0.2-0.1-0.3-0.1
		c0,0-0.1,0.1-0.1,0.2c0,0.1,0.1,0.1,0.2,0.2C564.1,689.8,564.2,689.7,564.4,689.4z"/>
	<path fill="#FFFFFF" d="M492.2,673.4c-0.1,0.2-0.2,0.5-0.3,0.6c-0.2,0.2-0.2,0.3-0.2,0.6c0,0.5,0.1,0.9-0.3,1.3
		c-0.2,0.8-0.6,1.7-0.8,2.6c-0.2,0.6-0.2,1.3-0.8,1.7c-0.1,0.1-0.2,0.3-0.3,0.6c-0.3,0.9-0.7,1.8-1.1,2.9c-0.3,0-0.7-0.1-1-0.1
		c0,0.2-0.1,0.3-0.1,0.6c0.2,0.9,0.1,1.7-0.2,2.6c-0.1-0.1-0.2-0.3-0.5-0.6c-0.1,0.2-0.3,0.3-0.3,0.6c-0.2,0.7-0.8,1.4-0.8,2.3
		c0,0.1,0,0.2-0.1,0.2c-0.7,0.6-0.7,1.5-0.9,2.3c-0.1,0.6-0.5,1-0.8,1.6c0.2,0.2,0.5,0,0.6-0.1c0.8-1,1.4-2.2,2.2-3.2l0,0
		c0.1,0.1,0.2,0.3,0.2,0.5c-0.1,0.6-0.1,1.1-0.1,1.7c0,0.3-0.2,0.8-0.3,1.1c-0.2,0.6-0.7,0.9-0.8,1.6c0,0.1-0.1,0.1-0.1,0.2
		c-0.9,0.6-1.3,1.6-1.5,2.7c-0.1,0.3-0.2,0.7-0.3,1c-0.1,0.3-0.1,0.6-0.1,1c-0.1,0-0.3,0.1-0.5,0.1c-0.5,0-0.8,0.2-0.9,0.7
		c-0.1,0.3,0,0.6,0.6,1.3c-0.7,0.5-1.1,1-1.5,1.8c-0.3,0.7-0.2,1.6-0.2,2.5c-0.5-0.1-0.8-0.2-1.1-0.3c0,0-0.1,0-0.1,0.1
		c-0.1,0.2-0.2,0.3-0.3,0.6c-0.5,0.7-0.5,0.7,0.3,1.3c0,0,0.1,0,0.1,0.1c0.1,0.3,0.1,0.6,0.2,0.9c0.1,0.3,0,0.7-0.3,0.9
		c-0.2-0.1-0.5-0.3-0.7-0.5c-0.1,0-0.2,0.1-0.2,0.1c-0.1,0.1-0.2,0.2-0.2,0.3c0,0.7-0.6,0.9-1,1.1c0.1,0.5,0.5,1,0.2,1.6
		c-0.2,0.5-0.1,1-0.2,1.5c-0.6,0.5-0.6,0.5-0.9,1.3c-0.2,0.6-0.5,1.1-0.7,1.6c-0.3,0.8-0.3,0.8-1.3,1c-0.2,0.7-0.3,1.4-0.6,2.2
		c-1,0-1,0-1.3,0.5c0.1,0.2,0.2,0.1,0.5,0.1c0.5,0,0.7,0.3,0.5,0.7c0,0.1-0.3,0.1-0.7,0.2c-0.1,0.3-0.1,0.7-0.2,1.1
		c-0.5,0.2-1,0.3-1.3,1c0.1,0.2,0.3,0.5,0.3,0.7c-0.1,0.3-0.3,0.8-0.6,1c-0.2,0.2-0.6,0.5-0.8,0.7c-0.2,0.2-0.5,0.5-0.6,0.7
		c-0.1,0.5-0.2,0.9-0.6,1.1c-0.1,0.1-0.1,0.2-0.1,0.3c-0.1,1-0.6,1.8-1.1,2.6c0,0.2,0,0.5,0.1,0.7c0.1,0.7,0,1.3-0.6,1.7
		c-0.1,0.1-0.3,0.3-0.2,0.5c0.2,0.7-0.2,1.3-0.6,1.7c-0.5,0.9-0.6,1.8-0.8,2.9c-0.1,0-0.2,0.1-0.3,0.1c-0.3,0-0.7,0.2-0.6,0.6
		c0.1,0.7-0.1,1.3-0.5,1.8c-0.1,0.2-0.2,0.6-0.2,0.9c0,0.2-0.1,0.5-0.1,0.7c-0.3,0.9-0.8,1.7-1.1,2.7c-0.2,0.9-0.8,1.6-1.3,2.5
		c-0.1,0.2-0.2,0.6-0.3,0.9c-0.1,0.5-0.3,0.9-0.6,1.3c-0.3,0.6-0.6,1.1-0.7,1.8c-0.1,0.7-0.6,1.1-1.1,1.5c-0.2,0.1-0.5,0.2-0.7,0.2
		c-0.6,0.1-0.9,0.6-1.1,1c-0.6,1.3-1.1,2.5-1.8,3.7c-0.1,0.2-0.2,0.5-0.5,0.7c-0.5,0.6-0.9,1.1-1.4,1.7c-0.1,0.1-0.3,0.3-0.6,0.5
		c0-0.6,0.1-0.9-0.6-0.8c-0.2,0-0.5-0.2-0.7-0.3c-0.5,0.2,0,0.6-0.1,0.8c-0.7,0.2-1,0.1-1.1-0.3c-0.1-0.3-0.1-0.7-0.1-1
		c-0.1-1.5-0.1-3.1-0.2-4.5c0-0.2,0-0.5-0.1-0.7c-0.3-1-0.2-2.2,0-3.2c0-0.2,0.1-0.5,0-0.7c-0.3-0.9-0.1-2-0.1-3
		c0-2.2,0-4.3,0.1-6.5c0.1-2.6,0.1-5.3,0.2-7.9c0-2,0-4.1,0.1-6.2c0.2-2.5,0.5-5,0.7-7.5c0.1-1.3,0.3-2.7,0.3-4
		c0-0.8,0.2-1.5,0.2-2.4c0.1-0.9,0.3-1.8,0.6-2.9c0.2,0.1,0.5,0.2,0.6,0.3c0.2,0.2,0.3,0.5,0.5,0.7c0.3,1.3,0.5,2.6,0.2,3.9
		c0.3,0.5,0.6,0.9,0.6,1.6c0,0.3,0.1,0.7,0.2,0.9c0.2,0.7,0.3,1.4,0.2,2.3c-0.1,0.3,0,0.7,0.2,1c0.3,0.5,0.3,1,0.2,1.6
		c-0.1,0.6-0.1,1.1,0,1.7c0.2,1.4,0.2,2.9,0.7,4.1c-0.1,1.1,0.2,2.4,0.3,3.7c0.1,0.6,0.2,1,0.1,1.6c0,0.6,0.2,0.9,0.3,1.5
		c0.1,0.2-0.1,0.6-0.1,0.8c0,0.6-0.1,1.1,0.6,1.6c0.6-0.5,0.6-1.1,0.9-1.6c0.3-0.7,0.6-1.3,0.9-2c0.1-0.1,0.2-0.3,0.2-0.5
		c0.1-0.6,0.5-1.1,0.7-1.6c0.2-0.5,0.6-0.9,0.6-1.4c0.1-0.7,0.3-1.3,0.7-1.7c0.9-1.5,1.5-3.2,2.4-4.8c0.9-1.8,1.7-3.9,2.7-5.7
		c0.7-1.5,1.5-3.1,2.3-4.6c1-2.2,2-4.2,3.1-6.4c0.8-1.6,1.6-3.3,2.3-5c0.1-0.3,0.3-0.6,0.5-0.8c0.8-1,1.5-2.3,1.8-3.5
		c0-0.1,0-0.2,0.1-0.2c0.7-0.6,0.8-1.5,1.4-2.3c0.5-0.7,0.8-1.4,0.8-2.2c0.2-0.2,0.5-0.3,0.7-0.5c0,0.3,0.1,0.7,0.1,1
		c1.5,0,2.7-1.6,1.8-3.7c-0.3,0.3-0.8,0.8-1.1,1.1c0.2-0.5,0.3-0.8,0.5-1.3c0.2-0.7,0.5-1.3,1-1.7c0.3-0.2,0.5-0.7,0.6-1
		c0.2-0.6,0.6-1.1,1-1.5c0.5,0.1,0.5,0.5,0.2,0.7c-0.6,0.5-0.6,1-0.9,1.7c0.9-0.3,1.3-0.9,1.4-1.6s0.5-1.3,0.9-1.7
		c0.4-0.4,0.7-1,0.8-1.7c-0.2-0.1-0.5-0.1-0.7-0.2c0-0.1-0.1-0.2,0-0.2c0.2-0.3,0.6-0.7,0.6-1c0-1,0.8-1.5,1.3-2.4
		c0.5-0.8,0.9-1.7,1.3-2.7c0.1-0.3,0.1-0.7,0.5-0.9c0,0,0-0.1,0.1-0.1c0.5-0.3,0.3-1,0.7-1.4c0.3-0.3,0.8-0.6,0.9-1.1
		c0.1-0.6,0.8-0.6,1.1-0.9c0.2-0.6-0.1-1.3,0.3-1.6c0.5-0.3,0.5-1.1,1.4-1.1c-0.2,0.3-0.5,0.6-0.5,0.9c-0.1,0.5-0.2,0.9-0.2,1.5
		c0,0.5-0.2,0.8-0.3,1.3c0,0.2,0,0.5,0.1,0.8c0.6,0,0.7-0.3,0.8-0.7C491.5,673.2,491.6,673.2,492.2,673.4L492.2,673.4z M490,675.3
		c-0.5,0.1-1-0.1-1,0.6c0,0.5,0.2,0.6,1,0.5C490,676,490,675.6,490,675.3z M486.8,682.8c0.8-0.6,1-1,1-1.7
		C487,681.7,487,681.7,486.8,682.8z M488.9,678c0.1,0,0.1-0.1,0.2-0.1c0-0.1,0-0.2-0.1-0.2c0,0-0.2,0-0.2,0.1
		C488.8,677.8,488.9,678,488.9,678z"/>
	<path fill="#FFFFFF" d="M430.9,762.7c-0.2-0.1-0.5-0.3-0.8-0.5c-0.7,0.5-1.4,0.8-2.2,1.1c-0.3,0.2-0.7,0.6-0.7,1.1s-0.2,1-0.6,1.5
		c-0.3-0.1-0.6-0.3-0.9-0.5c-0.8,0.1-1.5,0.5-2.3,0.8c-1,0.6-2.2,1-3.3,1.3c-0.2,0.1-0.5,0.2-0.8,0.3c-0.6,0.2-1.1,0.3-1.7,0.5
		c-0.9,0.2-1.8-0.1-2.6-0.7c-0.2-0.1-0.5-0.3-0.5-0.7c-0.5-1-0.8-2.3-0.8-3.4c0.1-2.4,0.2-4.6,0.3-7c0.1-2.3,0.7-4.5,1.4-6.6
		c0.3-1.3,0.9-2.6,1.1-3.9c0.2-1,0.7-1.8,1.3-2.9c0.2-0.3,0.6-0.7,0.9-1c0.7-0.6,1.4-1,2-1.5c0.2-0.1,0.5-0.3,0.7-0.3
		c0.8-0.1,1.4-0.9,2.3-1.1c0.8-0.9,1.8-1.1,3-1.6c0.3-0.2,0.7-0.3,1-0.7c0.3-0.2,0.6-0.5,0.6-0.9c0.1-0.7,0.3-1.4,0.6-2
		c0.2-0.3,0.2-0.9,0.3-1.4c0.2-2.2,0.7-4.2,1.1-6.4c1.5-7.1,3.2-14.2,4.8-21.1c1-4.6,2-9,3.1-13.7c0-0.2,0.1-0.3,0.1-0.6
		c0.3-1.3,0.6-1.5,1.8-1.6c0.5,0,1-0.1,1.5-0.1c0.3,0,0.6,0.1,0.6,0.5c0.1,0.3,0.1,0.6,0.2,0.9c0.3,2,0.6,4,0.2,6
		c-0.3,1.8-0.5,3.8-0.7,5.6c-0.1,1.3-0.5,2.5-0.9,3.7c0,0.1-0.2,0.3-0.2,0.5c0.1,1.4-0.2,2.7-0.5,4c-0.1,0.6-0.1,1-0.1,1.6
		c0,0.2,0,0.5-0.1,0.7c-0.3,1.6-0.7,3.3-1,4.9c-0.1,0.5-0.1,0.8-0.1,1.3c0,2.4-0.7,4.5-1.1,6.7c0,0.2-0.1,0.5-0.2,0.7
		c0,1.3-0.5,2.6-0.7,3.9c-0.1,0.7-0.2,1.5-0.2,2.3c0,0.7-0.1,1.5-0.2,2.3c-0.2,1.3-0.5,2.5-0.7,3.8c0,0.1-0.1,0.2-0.1,0.2
		c0.3,0.8-0.1,1.4-0.2,2.2c-0.2,0.7-0.1,1.4-0.5,2c-0.1,0.1-0.1,0.3-0.1,0.6c0,0.7-0.1,1.3-0.5,1.8c-0.3,0.7-0.2,1.5-0.6,2.3
		c0.1,0.9-0.1,1.8-0.3,2.9c-0.5,2-0.6,4.1-1.1,6c-0.1,0.2,0,0.5,0,0.7c0,0.2,0,0.5-0.1,0.7c-0.5,1.1-0.7,2.5-1.1,3.8
		C431.3,762.3,431.1,762.5,430.9,762.7z M419.3,761.4c0.5,0.1,0.9,0.1,1.3-0.2c0.5-0.3,0.9-0.6,1.1-0.9c0.6-0.6,1.1-1.1,1.8-1.6
		c0.5-0.3,0.8-0.8,0.8-1.4c0.1-0.9,0.3-1.7,0.5-2.6c0.3-2.9,0.9-5.5,1.4-8.2c0.1-0.6,0.1-1,0.2-1.6c0-0.2-0.1-0.5-0.1-0.7
		c-0.6,0.2-0.9,0.6-1.4,0.8c-0.5,0.3-0.9,0.7-1.4,1c0,0.6-0.1,1-0.8,1.4c-0.7,0.2-1.3,0.8-1.5,1.6c-0.3,1.1-0.7,2.5-1,3.7
		c-0.1,0.5-0.2,0.9-0.3,1.4c-0.2,1.3-0.3,2.5-0.7,3.8C419.3,758.9,419.3,760.2,419.3,761.4z M414.4,765.6c0-0.2,0-0.5,0-0.9
		C414.2,765.2,414.1,765.4,414.4,765.6z M414.6,766.4L414.6,766.4L414.6,766.4L414.6,766.4z"/>
	<path fill="#FFFFFF" d="M514,718.9c0.2,0.1,0.3,0.3,0.6,0.3c0.7,0,1.3,0.7,2.2,0.6c0.1,0,0.2,0.1,0.3,0.2c0.5,0.6,0.9,1.1,1.3,1.7
		c0.1,0.1,0.2,0.3,0.1,0.5c-0.2,0.7,0.1,1.1,0.5,1.6c0.5,0.6,0.3,1.3,0.2,2c-0.1,0.8-0.3,1.7-0.5,2.6c0,0.8,0,1.6,0.1,2.5
		c-0.2,0.2-0.3,0.5-0.5,0.7c-0.5,0.5-0.6,1.1-0.3,1.6c0.3,0.8-0.1,1.1-0.7,1.6c0,0.3-0.1,0.6,0,0.9c0.6,1.8,0.2,3.8-0.2,5.5
		c-0.3,1.4-0.7,2.7-1,4.1c0,0.1,0,0.2-0.1,0.3c-0.6,1.3-0.8,2.6-1,3.9c-0.1,0.3-0.1,0.6-0.2,0.9c-0.2,0.6-0.3,1.3-0.5,1.8
		c-0.1,0.8-0.1,1.7-1.1,2.2c-0.1,0.3-0.2,0.7-0.5,1c-0.1,0.3-0.2,0.7-0.8,0.6c0.1-1,0-2,0.2-3.1c0.2-1,0.2-2.3,0.2-3.4
		c-0.2-2.7,0.1-5.3,0.5-8c0-0.3,0.1-0.7,0.1-1c0.2-2.2,0.5-4.2,0.7-6.4c0.1-1.6,0.3-3.4,0.5-5c0-0.8,0-1.6-0.1-2.5
		c-0.1-1.4-0.2-2.9-0.5-4.2c-0.1-0.6-0.1-0.6-0.7-1.1c-0.1,0.2-0.2,0.3-0.3,0.6c-0.5,0.6-0.8,1-1.3,1.6c-0.3,0.5-0.8,0.9-0.9,1.5
		c-0.3,1-1,2.2-1,3.3c0,0.2-0.1,0.6-0.2,0.8c-0.3,0.8-0.8,1.6-1.1,2.5c-0.2,0.6-0.6,1.3-0.5,2c0,0.2-0.1,0.5-0.1,0.7
		c-0.1,0.6-0.3,1.1-0.5,1.7c-0.1,0.3-0.2,0.8-0.5,1.1c-0.2,0.5-0.5,1-0.6,1.5c-0.2,1.5-1,3-1.4,4.5c-0.2,0.7-0.3,1.3-0.3,2.2
		c0,0.6-0.2,1.1-0.5,1.7c-0.3,0.9-0.6,1.8-0.5,2.9c0,0.6-0.1,0.9-0.7,1.1c-0.7,0.2-1.3,0.5-2,0.7c-0.2,0.1-0.5,0.1-0.7,0.1
		c-0.7-0.1-1.4,0-2.2,0.5c0-0.5-0.1-0.7,0-0.9c0.6-1.7,0.6-3.7,0.7-5.5c0.1-2.3,0.1-4.6,0.7-6.8c0.2-0.8,0.2-1.7,0.5-2.6
		c0.2-1.7,0.8-3.4,1.5-4.9c0.1-0.5,0.3-0.8,0.5-1.3c0.8-2.2,1.7-4,3.3-5.6c0.3-0.3,0.6-0.7,0.8-1.1c0.2-0.6,0.6-1.1,1.1-1.6
		c0.9-0.9,1.8-1.7,3-2.7c0.7-0.6,1.5-0.9,2.5-1.3C512.6,718.1,513.3,718.2,514,718.9C514.1,718.9,514,718.9,514,718.9z M510.2,720.2
		c-0.9,0.1-0.9,0.1-0.9,0.7C509.6,720.8,509.9,720.5,510.2,720.2z"/>
	<path fill="#FFFFFF" d="M546.4,746.8c-0.7-0.1-1.3-0.5-2-0.5c-0.1,0-0.2-0.1-0.3-0.2c-0.5-0.5-0.8-0.9-1.1-1.5
		c-0.1-0.2-0.3-0.6-0.2-0.9c0-0.5-0.1-0.8-0.5-1.1c-0.5-0.5-0.6-1-0.5-1.6c0.5-1.5,0.3-3.2,0.2-4.7c0-0.6,0.1-1,0.5-1.4
		c0.3-0.5,0.5-1,0.2-1.5c-0.2-0.5-0.1-0.9,0.2-1.3c0.5-0.5,0.5-0.9,0.2-1.5c-0.5-1.5-0.6-3.2-0.2-4.8c0.1-0.5,0.2-0.9,0.3-1.3
		c0-0.5,0-0.9-0.1-1.4c0-0.5,0.2-0.7,0.6-1c-0.1-0.2-0.1-0.6-0.2-0.8c0-0.3,0-0.7,0.5-0.8c0.6-0.2,0.7-0.6,0.7-1
		c0.1-1.1,0.2-2.3,0.7-3.3c0.2-0.5,0.2-0.9,0.2-1.4c0-0.8,0.1-1.6,1-2.3c0.2-0.1,0.2-0.5,0.3-0.7c0.1-0.5,0.1-0.5,0.7-0.9
		c0.1,0.1,0.1,0.1,0.2,0.1c0,0.6,0.1,1.1,0,1.8c-0.2,2,0,4,0,6c0,2.2,0,4.1-0.2,6.3c-0.1,0.9,0,2-0.1,3c-0.1,2.7-0.3,5.4-0.5,8.1
		c-0.1,0.9,0.1,2,0.1,3c0.1,1.4,0.3,2.9,0.7,4.3c0.1,0.5,0.1,0.8,0.6,1c0.1-0.1,0.2-0.1,0.3-0.2c0.2-0.8,0.8-1.4,1.3-2
		c0.6-0.7,0.9-1.5,1.1-2.4s0.5-1.6,0.7-2.6c0.2-0.9,0.7-1.8,1-2.7c0.2-0.7,0.5-1.4,0.5-2.2c0.1-1.1,0.5-2.3,0.8-3.4
		c0.2-0.9,0.7-1.8,0.7-3c0-0.2,0-0.3,0.1-0.6c0.6-0.7,0.6-1.6,0.8-2.5c0.2-0.7,0.3-1.3,0.2-2.2c0-0.3,0.1-0.8,0.2-1.3
		c0.1-0.7,0.5-1.4,0.5-2.3c0-0.3,0-0.7,0-0.9c-0.1-0.7,0.1-1.3,0.8-1.6c0.7-0.3,1.3-0.7,1.8-1c0.5,0.1,0.9,0.3,1.3,0.3
		c0.3,0,0.7-0.3,1.1-0.6c0.2,0.1,0.2,0.3,0.2,0.6c-0.6,2-0.3,4-0.5,6c0,2.2,0,4.1-0.3,6.3c-0.2,1.3-0.3,2.5-0.5,3.8
		c-0.1,0.8-0.3,1.6-0.6,2.5c-0.5,1.4-0.8,2.9-1.4,4.1c-0.6,1.5-1.4,2.9-2.4,4.1c-0.2,0.3-0.6,0.7-0.7,1.1c-0.2,0.6-0.5,0.9-0.8,1.4
		c-0.9,1.1-1.8,2.3-3.1,3.2c-0.8,0.7-1.7,1-2.9,1.3c-0.6,0.1-1,0-1.4-0.2C547,747.1,546.7,746.9,546.4,746.8L546.4,746.8z
		 M550.9,745.5c0.5,0.1,0.7,0,0.6-0.6C551.1,745.1,550.9,745.2,550.9,745.5c-0.1,0-0.2,0.1-0.3,0.1c0,0,0,0.1,0.1,0.1
		C550.8,745.8,550.8,745.7,550.9,745.5z"/>
	<path fill="#FFFFFF" d="M615.1,713.6c0.5,0.2,0.7,0.7,0.7,1.3c0,0.5-0.2,0.8-0.6,1c-0.2,0.2-0.5,0.6-0.8,0.8
		c-0.6,0.3-1,0.7-1.4,1.4c-0.2,0.5-0.7,0.7-1.1,1c-0.5,0.5-0.8,1-0.9,1.6c-0.3,1.4-1,2.7-2.3,3.7c-0.2,0.2-0.6,0.5-0.8,0.8
		c-1.1,1.3-2.6,2.5-4.1,3.4c-1.1,0.7-2.5,1.3-3.9,1.6s-2.6,0.5-4,0.2c-0.1,0-0.2,0-0.2,0c-3.3,0-5.4-3.1-5.5-5.7
		c0-0.8,0.2-1.6,0.3-2.5c0.1-0.6,0.2-1.1,0.2-1.7c-0.1-1.1,0.1-2.4,0.5-3.5c0.5-1.7,1-3.7,2.2-5.1c1.8-3,3.8-6,6.4-8.3
		c0.1-0.1,0.1-0.1,0.2-0.2c0.9-1.1,2.3-1.7,3.7-2.3c0.7-0.2,1.3-0.5,2-0.7c0.6-0.2,1.3-0.3,1.8-0.1c0.5,0.2,0.8,0.1,1.3-0.1
		c1-0.6,1.8-0.3,2.7,0.6c0.8,1.1,1.5,2.4,1.6,3.8c0.1,0.8-0.1,1.4-0.9,1.8c-0.7,0.3-1.3,1-2.3,1c-0.2,0-0.5,0.1-0.6,0.3
		c-0.7,0.6-1.3,1.3-2.3,1.6c-0.1,0-0.1,0.1-0.2,0.2c-0.2,0.7-0.9,0.9-1.5,1.4c-0.2,0.1-0.6,0.3-0.8,0.6c-1.1,1-2.6,1.7-3.9,2.7
		c-0.2,0.1-0.5,0.3-0.7,0.3c-0.6,0.1-1.1,0.5-1.6,0.8c-0.6,0.3-1.1,0.7-1.4,1.5c0,0,0,0.1-0.1,0.1c-1.4,1.4-1.4,3.3-1.8,5
		c-0.1,0.6,0,1.3,0.2,1.8c0.1,0.5,0.7,0.7,1.1,0.9c0.7,0.2,1.3,0.3,2,0.6c0.1,0,0.2,0.1,0.2,0c0.8-0.3,1.8-0.2,2.6-1
		c0.2-0.2,0.5-0.5,0.8-0.6c1.1-0.6,2.2-1.5,3.1-2.5c1.5-1.5,3.2-2.7,4.8-4c0.9-0.8,2-1.5,3-2.4C613.4,714,614.3,713.7,615.1,713.6z
		 M608.2,703.4c-0.3-0.2-0.7-0.5-0.9-0.7c-0.6-0.5-0.7-0.5-1.1,0c-1,0.8-2.2,1.7-3.1,2.7c-0.5,0.3-0.9,0.8-1.1,1.4
		c-0.7,1-1.4,2.3-2.2,3.3c0,0.1,0,0.2,0,0.5c0.2,0,0.3,0,0.5-0.1c1.4-0.8,2.9-1.6,4.1-2.7c0.8-0.7,1.7-1.1,2.7-1.6
		C608.1,705.4,608.6,705.1,608.2,703.4z"/>
	<path fill="#FFFFFF" d="M493.7,724.7c0.1,0.7-0.2,1.4,0.2,2c0.1,0.1,0,0.3,0,0.6c-0.3,1.6-1,3.2-2.4,4.5c-0.3,0.3-0.6,0.7-0.8,1.1
		c-0.5,0.8-0.5,0.9-1.5,0.7c-0.2,0.2-0.5,0.5-0.6,0.7c-0.2,0.6-0.9,0.5-1.3,0.9c0,0-0.2-0.1-0.5-0.2c-0.1,0.2-0.1,0.5-0.2,0.7
		c-0.1,0.5-0.5,0.8-0.9,0.9c-1.5,0.6-3,1-4.5,1.6c-0.7,0.2-1.4,0.5-2.3,0.5c-0.5,0-0.9,0.1-1.3,0.5c-0.2,0.1-0.6,0.3-0.9,0.6
		c-0.6,1.6-0.9,3.3-1.1,5c0,0.1,0,0.2,0,0.5c-0.5,1.8-0.1,3.7,0.2,5.4c0.1,0.9,0.1,2,0.5,3c0.6,0.3,1.1,0.5,1.8,0.1
		c0.5-0.2,0.9-0.3,1.3-0.6c1.4-0.8,2.9-1.5,4.2-2.6c1.1-0.8,2.4-1.6,3.7-2.5c-0.5,1.3-1.3,2.3-2.2,3.3c-0.1,0.1-0.3,0.2-0.5,0.3
		c-0.6,1.3-1.8,2-2.9,3.1c-0.2,0.2-0.6,0.3-0.8,0.5c-0.3,0.1-0.7,0.3-0.9,0.8c-0.1,0.5-0.5,0.7-0.9,0.8c-1.8,0.6-3.7,1.1-5.5,1.3
		c-1.1,0.1-2.2-0.3-2.7-1.4c-0.5-0.8-0.8-1.5-1.3-2.4c-0.1-0.2-0.2-0.6-0.3-0.9c-0.3-1.7-0.5-3.5-0.3-5.3c0.1-2.4,0.3-4.6,1-6.8
		c0.5-1.4,0.9-2.9,1.5-4.2c0.6-1.3,1.1-2.5,1.8-3.7c0.9-1.5,2.2-3,3.3-4.3c0.9-1,2-2,3.1-3c0.2-0.2,0.7-0.5,1-0.7
		c0.7-0.6,1.4-1,2.2-1.6c0.7-0.6,1.4-0.8,2.4-0.9c0.9-0.1,1.8-0.3,3,0c0.5,0.1,0.9,0.2,1.4-0.1c0.2-0.1,1.8,0,2.3,0.1
		c0.2,0.1,0.6,0.2,0.7,0.5C492.5,723.7,493.2,724.2,493.7,724.7z M477.1,737.3c1.3,0.2,1.3,0.2,2.4-0.1c0.3-0.1,0.6-0.2,0.8-0.5
		c1.1-0.6,2.4-1.3,3.7-1.8c0.8-0.5,1.6-0.8,2.4-1.5c0.8-0.9,1.6-2,2.3-3.2c0.3-0.6,0.3-1.3,0.2-1.8c-0.2-0.9-0.8-1.3-1.7-1
		c-0.3,0.1-0.7,0.2-1,0.3c-0.7,0.3-1.4,0.7-2.3,0.9c-1.4,0.5-2.4,1.5-3.1,2.7c-0.9,1.7-1.7,3.7-2.5,5.5c-0.2,0-0.3-0.1-0.6-0.1
		C477.4,736.9,477.2,737,477.1,737.3z"/>
	<path fill="#FFFFFF" d="M569.6,739.5c0-0.3,0-0.6,0-0.7c0.1-1,0.3-2.2,0.3-3.2c0-0.8,0-1.6,0.1-2.5c0.5-3.3,0.8-6.6,1.3-9.9
		c0.3-2.7,0.7-5.3,1-8c0.1-1.1,0.2-2.4,0.5-3.5c0.1-0.9,0.5-1.8,0.7-2.9c0-0.2,0.1-0.3,0.2-0.5c0.8-1.5,2.3-1.6,3.4-0.3
		c0.1,0.1,0.1,0.1,0.2,0.2c1-0.8,2.3-1.6,3.4-2.2c0.8,0.1,1.5,0.2,2.4,0.2c0.3,0,0.7-0.2,1-0.3c0.2,0,0.3,0.1,0.7,0.2
		c-0.3,0.1-0.5,0.2-0.7,0.3c0.5,0.6,1,0.2,1.5,0.2c0.2,0.5,0.3,0.8,0.6,1.3c-0.3,0.7-1.1,0.6-1.6,1.1c-0.5,0.5-1,0.8-1.6,1.3
		c-0.1,0-0.2,0-0.3,0c-1.5-0.2-2.6,0.2-3.3,1.5c-0.2,0.5-0.6,0.9-1,1.3c-0.7,0.6-1.1,1.5-1.3,2.5c-0.2,1.3-0.2,2.5-0.7,3.8
		c-0.1,0.2,0,0.5,0,0.7c0.1,1.4,0,2.9-0.3,4.2c-0.1,0.6-0.1,1.1-0.2,1.7c-0.1,0.9-0.3,1.8-0.5,3c0,0.3-0.1,0.6-0.1,0.9
		c-0.1,0.7-0.1,1.4-0.3,2.2c-0.6,1.6-1,3.4-1.6,5c-0.1,0.5-0.6,0.8-0.9,1c-0.6,0.3-1.3,0.7-2,1C570.1,739.6,570,739.5,569.6,739.5z"
		/>
	<path fill="#FFFFFF" d="M578.3,751.5c0.6-0.5,1.1-0.3,1.5,0.1c1.1,1.3,2.3,2.6,2.5,4.5c0.1,1,0,2.2-0.8,3c-0.6,0.6-1.3,1-1.6,1.8
		c-1.6,1.8-3.8,2.5-6.2,2c-0.3,0-0.7-0.2-0.8-0.5c-0.8-0.8-1.3-1.7-1.1-3.1c0.1-1.4,0.3-2.9,1-4c0,0,0-0.1,0.1-0.1
		c0.3-1.1,1-2.2,2.2-3c0.2-0.1,0.3-0.5,0.5-0.7c0.2-0.3,0.6-0.7,0.8-1c0.3-0.3,0.7-0.3,1-0.1c0.1,0.1,0.2,0.2,0.3,0.3
		C578,751.1,578.1,751.3,578.3,751.5z M578.7,758.7c0.2-1.1-0.2-2.3-0.5-3.3c-0.1-0.6-0.6-1.1-1.3-1.3c-0.9,1.1-1.3,2.6-1.5,4
		c-0.1,0.7,0.5,1.4,1.1,1.5c0.2,0,0.6,0,0.8,0c0.1-0.2,0.3-0.5,0.6-0.6C578.2,758.9,578.4,758.8,578.7,758.7z"/>
	<path fill="#FFFFFF" d="M599.7,750.5c-0.2,0.3-0.3,0.5-0.5,0.7c-0.3,0.6-0.7,1-1,1.6c-0.2,0.5-0.7,0.7-1.1,0.9s-0.9,0.1-1.3-0.2
		c-0.5-0.5-0.7-1-0.8-1.6c0-1.1-0.2-2.5-0.2-3.7c0-0.8-0.1-1.5-0.1-2.4c0-0.1,0.1-0.2,0.2-0.5c1,0.6,1.4,1.5,1.8,2.6
		c0.2-0.1,0.5-0.1,0.6-0.3c0.3-0.5,0.6-0.9,0.9-1.4c0.8-1,1.5-2.3,2.4-3.3c0.1-0.2,0.3-0.3,0.6-0.6c1,0.3,1.3,1.4,2,2.2
		c0.5,0.6,0.5,1.3,0.3,2c0,0.2-0.1,0.3-0.1,0.6c-0.3,2.2-0.5,4.3-0.7,6.5c-0.1,1.3-0.2,2.5-0.2,3.8c0,0.5-0.1,0.9-0.3,1.3
		c-0.2,0.6-0.7,0.7-1.1,0.8c-0.6,0-0.9-0.1-1-0.8c-0.1-0.5-0.1-1-0.1-1.5c0.1-1.7,0.3-3.4,0.5-5.1C600,751.4,600,751,599.7,750.5z"
		/>
	<path fill="#FFFFFF" d="M554.7,758c0,0.3-0.1,0.6-0.1,1c1.4-0.5,1.5-1.8,2.5-2.5c-0.1-0.2-0.1-0.5-0.1-0.6c0-0.1-0.1-0.2-0.2-0.2
		c0.2-0.2,0.3-0.5,0.6-0.7c0.6-0.8,1.1-0.9,2.2-0.6c0.1,0,0.2,0.1,0.3,0.2c0.1,0,0.1,0.1,0.2,0.2c0,0.5-0.2,0.9-0.8,1
		c-0.2,0-0.5,0.2-0.6,0.3c-0.7,0.7-1.1,1.6-1.6,2.6c-0.3,0.9-0.7,1.8-1.1,2.9c-0.3,0.7,0,1.3,0.2,1.8c0,0.1,0.2,0.2,0.5,0.2
		c0.3,0.1,0.7,0.1,0.9,0.1c1.4-0.3,2.9-0.7,3.9-1.8c0.3-0.5,0.8-0.9,1.5-1.1c0.1,0.1,0.3,0.2,0.5,0.3c0.7,0.6,0.7,1.1,0.2,1.7
		c-0.3,0.5-0.7,0.7-1.1,0.9c-0.5,0.2-0.9,0.5-1.4,0.7c-0.2,0.1-0.5,0.2-0.8,0.3c-1,0.1-1.7,0.7-2.6,1.3c-0.9,0.7-2,0.6-3.1,0.5
		c-0.5-0.1-0.8-0.6-0.9-1.1c0-1,0-2-0.2-3.1c0-0.1,0-0.3,0.1-0.6c0-0.2,0.2-0.3,0.1-0.5c-0.1-0.5,0.2-0.9,0-1.4
		c-0.1-0.3,0.1-0.3,0.3-0.3c0.3-0.1,0.1-0.3,0-0.6C553.9,758.6,554,758.3,554.7,758L554.7,758z"/>
	<path fill="#FFFFFF" d="M543.6,766.6c-1.3-0.7-1.7-0.7-1.1-2.5c0.1-0.3,0.1-0.6,0.1-0.9c0-0.3,0.1-0.6,0.1-1c0.2,0,0.6-0.1,0.8,0
		c0.8,0,1.5,0.1,2.4,0.1c0.7,0.1,1.1,0.5,1.4,1.1c0.2,0.8,0.3,1.5-0.3,2.3c-0.3,0.3-0.7,0.5-1,0.6
		C544.9,766.2,544.3,766.4,543.6,766.6z"/>
	<path fill="#FFFFFF" d="M593,748.5c0.2,0.7,0.3,1.1,0.1,1.6c-0.6,1.1-0.5,2.5-1,3.7c-0.3,0.7-0.7,1.4-1.1,2c-0.6,0.6-1,1.3-1.5,2
		c-0.1,0.2-0.3,0.3-0.7,0.6c0.1-0.7,0.2-1.1,0.5-1.6c0.7-0.8,0.9-1.7,1.1-2.7c0.3-1.3,0.9-2.5,1.6-3.5c0.2-0.3,0.3-0.8,0.6-1.3
		C592.6,749.1,592.8,748.9,593,748.5z"/>
	<path fill="#FFFFFF" d="M485.9,689.9c0.3-0.6,0.7-1.1,0.9-1.6c0.2-0.6,0.5-1.1,0.7-1.7c0.2,0,0.3,0,0.6,0.1
		c0.3-0.3,0.7-0.6,0.9-0.9c0.3-0.3-0.1-0.8-0.1-1.1c0.1-0.3,0.1-0.7,0.3-1c0.1-0.5,0.3-0.8,0.6-1.3c0-0.1,0.1-0.3,0.1-0.3
		c0.6-0.3,0.7-1,1-1.5c0.1-0.1,0.2-0.2,0.3-0.3c0.1,0,0.1,0,0.3,0c0,0.2,0,0.5-0.1,0.6c-0.2,0.2-0.3,0.5-0.3,0.8
		c0,0.3-0.1,0.7-0.2,1c-0.3,0.8-0.7,1.5-1,2.4c-0.2,0.7-0.6,1.3-1,2c-0.3,0.5-0.5,0.9-0.7,1.5c-0.2-0.1-0.6-0.2-0.9-0.3
		c-0.1,0.8,0.3,1.6-0.5,2.4C486.7,689.9,486.2,690,485.9,689.9C485.9,689.8,485.9,689.9,485.9,689.9z"/>
	<path fill="#FFFFFF" d="M573.4,689.4c0.1-0.2,0-0.6,0.3-0.7c1.6-0.5,3.4-1,5.4-0.9c-0.2,0.2-0.3,0.3-0.5,0.5
		c-0.7,0.1-1.4,0.3-2.2,0.7c-0.2,0.1-0.5,0.2-0.8,0.2C575,689.1,574.1,689.2,573.4,689.4L573.4,689.4z"/>
	<path fill="#FFFFFF" d="M522.3,764.4c0,0.2,0.1,0.3,0.1,0.6c-0.1,0.7-0.5,1.3,0,2c-0.3,0.6-0.1,1.4-0.8,2.2
		c-0.1-0.3-0.2-0.6-0.1-0.8c0-0.8,0.1-1.7,0.1-2.6C521.6,765,521.9,764.7,522.3,764.4C522.3,764.5,522.3,764.4,522.3,764.4z"/>
	<path fill="#FFFFFF" d="M574.3,687.9c-0.1-0.5-0.2-0.6-0.2-0.7c0-0.5,0.7-0.7,0.2-1.3c0.2-0.2,0.5-0.5,0.8-0.3c0,0.2-0.1,0.5,0,0.6
		c0.1,0.2,0.3,0.2,0.6,0.1c0.2-0.1,0.3-0.1,0.7-0.2C576,686.9,575,686.9,574.3,687.9z"/>
	<path fill="#FFFFFF" d="M570.4,688c0.3-0.2,0.6-0.3,0.8-0.6c0.1-0.1,0.3-0.3,0.5-0.5c0.2-0.1,0.5,0,0.6,0.2c0.1,0.6,0,0.9-0.5,0.9
		C571.4,688.2,571.1,688.3,570.4,688z"/>
	<path fill="#FFFFFF" d="M568.4,686.9c0,0.7-0.5,0.9-0.9,1.1c-0.3,0.2-0.7,0-0.9-0.3c0-0.3,0.2-0.5,0.5-0.5
		C567.3,687.1,567.8,687.1,568.4,686.9z"/>
	<path fill="#FFFFFF" d="M587.8,686.3c-0.1,0.1-0.2,0.2-0.3,0.2c-0.6,0.1-1,0.2-1.6,0.2c-0.1,0-0.1-0.1-0.2-0.2
		c0.7-0.5,1.5-0.2,2.2-0.6C587.7,686,587.7,686.1,587.8,686.3z"/>
	<path fill="#FFFFFF" d="M492,671.6c0.1-0.1,0.2-0.3,0.5-0.5c0.2-0.2,0.3-0.5,0.6-0.7c0.3,0.7,0.3,0.7-0.1,1.1
		C492.6,671.9,492.5,671.9,492,671.6L492,671.6z"/>
	<path fill="#FFFFFF" d="M573.4,689.4c-0.5,0-1,0.1-1.5,0.1c-0.2-0.2-0.1-0.3,0.1-0.5C572.6,688.7,573,688.8,573.4,689.4
		L573.4,689.4z"/>
	<path fill="#FFFFFF" d="M593.6,749c0-0.6-0.8-1.1,0-1.8C594.1,747.7,594,748.4,593.6,749z"/>
	<path fill="#FFFFFF" d="M559.7,711.7c-0.1,0.3,0.6,0.9-0.1,1.1c0-0.3,0-0.7,0-1C559.6,711.9,559.7,711.9,559.7,711.7z"/>
	<path fill="#FFFFFF" d="M583.3,687.3c0.5-0.5,0.7-0.7,1.1-0.5v0.1C584.2,687.5,583.8,686.9,583.3,687.3z"/>
	<path fill="#FFFFFF" d="M580.8,685.5c0.5,0.1,0.5-0.5,0.7-0.7c0.2,0.3,0.2,0.7,0,1C581.2,686,581,685.6,580.8,685.5L580.8,685.5z"
		/>
	<path fill="#FFFFFF" d="M580.8,687.4c0.5-0.3,0.7-0.6,1-0.2C581.5,687.5,581.5,687.5,580.8,687.4z"/>
	<path fill="#FFFFFF" d="M589.6,685.9c0.2-0.5,0.6-0.5,0.9-0.3C590.4,686,590.4,686,589.6,685.9z"/>
	<path fill="#FFFFFF" d="M478.4,692.2c0.1,0.9,0.1,0.9-0.6,1.1C477.9,692.9,478,692.4,478.4,692.2z"/>
	<path fill="#FFFFFF" d="M483,684.2c-0.1,0.2-0.2,0.5-0.3,0.7c-0.3-0.5-0.1-0.6,0-0.8C482.9,684.1,482.9,684.2,483,684.2z"/>
	<path fill="#FFFFFF" d="M560.8,689c-0.2,0-0.3-0.1-0.6-0.1c0-0.1,0.1-0.2,0.1-0.3c0.1,0.1,0.3,0.2,0.5,0.3
		C560.8,688.9,560.8,688.9,560.8,689z"/>
	<path fill="#FFFFFF" d="M554.7,758c0-0.2,0-0.6,0.1-0.8c0.1-0.2,0.3-0.3,0.6-0.1C555.3,757.4,554.5,757.4,554.7,758L554.7,758z"/>
	<path fill="#FFFFFF" d="M493.7,666.4c-0.1,0.1-0.2,0.1-0.3,0.2c0-0.1-0.1-0.1-0.1-0.2c0.1-0.1,0.2-0.1,0.2-0.2
		C493.5,666.1,493.5,666.3,493.7,666.4z"/>
	<path fill="#FFFFFF" d="M491.8,669.5c0-0.5,0-0.7,0.1-1C492.3,668.7,492.2,668.9,491.8,669.5z"/>
	<path fill="#FFFFFF" d="M482.5,685.9c-0.1,0.1-0.2,0.1-0.3,0.2c-0.1-0.1-0.2-0.2-0.1-0.2c0-0.1,0.1-0.1,0.2-0.2
		C482.2,685.6,482.4,685.8,482.5,685.9z"/>
	<path fill="#FFFFFF" d="M492.2,678.8c-0.1,0-0.2,0.1-0.3,0.1l-0.1-0.2c0.1-0.1,0.2-0.1,0.3-0.2
		C492.1,678.7,492.1,678.7,492.2,678.8z"/>
	<path fill="#FFFFFF" d="M546.4,746.8c0.1,0.1,0.2,0.3,0.2,0.5h-0.1C546.5,747.1,546.4,746.9,546.4,746.8L546.4,746.8z"/>
	<path fill="#FFFFFF" d="M514.1,718.9c0.1,0,0.1-0.1,0.2-0.1c0.1,0,0.1,0,0.2,0v0.1c-0.1,0-0.1,0.1-0.2,0.1
		C514.2,718.9,514.1,718.9,514.1,718.9C514,718.9,514.1,718.9,514.1,718.9z"/>
	<path fill="#FFFFFF" d="M543.6,717.1c0.1,0.1,0.2,0.3,0.2,0.5c0.1,0.2,0,0.3-0.2,0.3l0,0C543.7,717.7,543.7,717.3,543.6,717.1
		L543.6,717.1z"/>
	<path fill="#FFFFFF" d="M543.7,717.1c-0.1,0-0.2-0.1-0.3-0.1c0-0.1,0.1-0.1,0.1-0.2C543.6,716.9,543.6,717,543.7,717.1
		C543.6,717.1,543.7,717.1,543.7,717.1z"/>
	<path fill="#FFFFFF" d="M493,667.2C493,667.2,493,667.3,493,667.2c0,0.1,0,0.2,0,0.2l-0.1-0.1C492.8,667.3,492.8,667.3,493,667.2z"
		/>
	<path fill="#FFFFFF" d="M588.6,685.8l0.1,0.1c-0.1,0.1-0.1,0.1-0.2,0.2c0-0.1-0.1-0.1-0.1-0.2C588.5,685.9,588.6,685.9,588.6,685.8
		z"/>
	<path fill="#FFFFFF" d="M492.2,672.6c-0.1,0-0.2-0.1-0.2-0.1c0-0.2,0-0.5,0-0.8l0,0C492.1,672,492.2,672.3,492.2,672.6L492.2,672.6
		z"/>
	<path fill="#FFFFFF" d="M577.3,685.2L577.3,685.2c0.1,0,0.1,0,0.1,0l-0.1,0.1C577.3,685.4,577.3,685.4,577.3,685.2z"/>
	<path fill="#FFFFFF" d="M594.4,684.7C594.4,684.7,594.4,684.8,594.4,684.7c0,0.1-0.1,0.1-0.1,0.1s0,0,0-0.1
		C594.3,684.7,594.3,684.7,594.4,684.7z"/>
	<path fill="#FFFFFF" d="M580.9,685.4c-0.3,0-0.3-0.1-0.1-0.5C580.8,685.1,580.8,685.2,580.9,685.4L580.9,685.4z"/>
	<path fill="#FFFFFF" d="M339,773C339,772.8,338.9,772.8,339,773c0-0.1,0.1-0.1,0.1-0.1s0,0,0.1,0.1C339.1,772.8,339,772.8,339,773z
		"/>
	<path fill="#FFFFFF" d="M346.5,765.3C346.7,765.3,346.7,765.3,346.5,765.3c0,0.1,0,0.1,0,0.1C346.5,765.3,346.5,765.3,346.5,765.3z
		"/>
	<path fill="#FFFFFF" d="M348,763.5C348,763.5,347.9,763.5,348,763.5c-0.1,0-0.1-0.1-0.1-0.1S348,763.4,348,763.5L348,763.5z"/>
	<path fill="#FFFFFF" d="M492.2,673.4c0-0.2,0-0.6,0-0.8l0,0C492.2,672.9,492.2,673.1,492.2,673.4L492.2,673.4z"/>
	<path fill="#FFFFFF" d="M548.4,690.8l0.1-0.1c0,0.1,0,0.1,0,0.1S548.5,690.7,548.4,690.8C548.4,690.7,548.4,690.8,548.4,690.8z"/>
	<path fill="#FFFFFF" d="M543.7,718.2c-0.1,0-0.2-0.1-0.2-0.1c0.1-0.1,0.1-0.1,0.2-0.2l0,0C543.7,718,543.7,718.1,543.7,718.2
		L543.7,718.2z"/>
	<path fill="#FFFFFF" d="M543.7,718.4c0,0.1,0,0.1,0,0.2l0,0C543.7,718.5,543.7,718.4,543.7,718.4
		C543.7,718.2,543.7,718.4,543.7,718.4z"/>
	<path fill="#FFFFFF" d="M399.3,682.8c0.1-0.1,0.2-0.1,0.3-0.2c0.5-0.1,0.6,0,0.6,0.5c0,0.1,0,0.2,0,0.2c-0.1,0.1-0.2,0.1-0.3,0.2
		c0,0-0.1-0.1-0.1-0.2s0-0.2,0-0.3C399.8,682.8,399.7,682.7,399.3,682.8L399.3,682.8z"/>
	<path fill="#FFFFFF" d="M389.1,698.7c0-0.1,0-0.2,0-0.2c0-0.1,0.1-0.1,0.2-0.1c0,0.1,0,0.2,0,0.3
		C389.3,698.7,389.1,698.7,389.1,698.7L389.1,698.7z"/>
</g>
</svg>
